<?xml version="1.0" encoding="UTF-8"?>
<svg id="Layer_2" data-name="Layer 2" xmlns="http://www.w3.org/2000/svg" viewBox="0 0 510.87 111.91">
  <defs>
    <style>
      .cls-1 {
        fill: #036;
      }
    </style>
  </defs>
  <g id="Layer_1-2" data-name="Layer 1">
    <g>
      <g>
        <g>
          <path class="cls-1" d="M193.78,63.91l-6.02,18.22h-7.73l19.68-57.92h9.02l19.77,57.92h-7.99l-6.19-18.22h-20.54Zm18.99-5.84l-5.67-16.67c-1.29-3.78-2.15-7.22-3.01-10.57h-.17c-.86,3.44-1.8,6.96-2.92,10.48l-5.67,16.76h17.45Z"/>
          <path class="cls-1" d="M231.29,84.13h-12.22l-6.19-18.22h-17.66l-6.02,18.22h-11.97l21.04-61.92h11.89l21.13,61.92Zm-9.35-4h3.76l-18.4-53.92h-6.16l-18.32,53.92h3.5l6.02-18.22h23.42l6.19,18.22Zm-6.37-20.06h-23.03l6.57-19.4c.95-2.98,1.86-6.28,2.88-10.33l.38-1.51h3.29l.54,2.11c.8,3.11,1.62,6.33,2.81,9.81l6.57,19.32Zm-17.45-4h11.86l-4.77-14.03c-.44-1.3-.84-2.56-1.2-3.79-.37,1.28-.73,2.49-1.1,3.66l-4.79,14.15Z"/>
        </g>
        <g>
          <path class="cls-1" d="M265.37,80.58c-1.98,1.03-6.36,2.41-11.95,2.41-12.55,0-20.71-8.51-20.71-21.23s8.77-22.09,22.34-22.09c4.47,0,8.42,1.12,10.48,2.15l-1.72,5.84c-1.8-1.03-4.64-1.98-8.77-1.98-9.54,0-14.7,7.05-14.7,15.73,0,9.62,6.19,15.55,14.44,15.55,4.3,0,7.13-1.12,9.28-2.06l1.29,5.67Z"/>
          <path class="cls-1" d="M253.42,84.99c-13.58,0-22.71-9.33-22.71-23.23s10.01-24.09,24.34-24.09c4.92,0,9.2,1.27,11.38,2.36l1.5,.75-2.9,9.88-2.2-1.26c-1.37-.78-3.83-1.71-7.77-1.71-9.37,0-12.7,7.39-12.7,13.73,0,8.11,5,13.55,12.44,13.55,3.85,0,6.39-.98,8.48-1.89l2.22-.98,2.17,9.54-1.37,.71c-2.33,1.21-7.1,2.63-12.87,2.63Zm1.63-43.31c-12.17,0-20.34,8.07-20.34,20.09s7.34,19.23,18.71,19.23c4.2,0,7.6-.83,9.63-1.58l-.4-1.77c-2.14,.76-4.63,1.33-7.85,1.33-9.68,0-16.44-7.22-16.44-17.55s6.71-17.73,16.7-17.73c3.21,0,5.68,.54,7.5,1.2l.56-1.91c-2.06-.72-4.99-1.3-8.06-1.3Z"/>
        </g>
        <g>
          <path class="cls-1" d="M303.36,80.58c-1.98,1.03-6.36,2.41-11.95,2.41-12.55,0-20.71-8.51-20.71-21.23s8.77-22.09,22.34-22.09c4.47,0,8.42,1.12,10.49,2.15l-1.72,5.84c-1.8-1.03-4.64-1.98-8.77-1.98-9.54,0-14.7,7.05-14.7,15.73,0,9.62,6.19,15.55,14.44,15.55,4.3,0,7.13-1.12,9.28-2.06l1.29,5.67Z"/>
          <path class="cls-1" d="M291.41,84.99c-13.58,0-22.71-9.33-22.71-23.23s10.01-24.09,24.34-24.09c4.92,0,9.2,1.27,11.38,2.36l1.5,.75-2.9,9.88-2.2-1.26c-1.37-.78-3.83-1.71-7.77-1.71-9.37,0-12.7,7.39-12.7,13.73,0,8.11,5,13.55,12.44,13.55,3.85,0,6.4-.98,8.48-1.89l2.22-.98,2.17,9.54-1.37,.71c-2.33,1.21-7.1,2.63-12.87,2.63Zm1.63-43.31c-12.17,0-20.34,8.07-20.34,20.09s7.34,19.23,18.71,19.23c4.2,0,7.6-.83,9.63-1.58l-.4-1.77c-2.14,.76-4.63,1.33-7.85,1.33-9.68,0-16.44-7.22-16.44-17.55s6.71-17.73,16.7-17.73c3.21,0,5.68,.54,7.5,1.2l.56-1.91c-2.06-.72-4.99-1.3-8.06-1.3Z"/>
        </g>
        <g>
          <path class="cls-1" d="M347.02,70.79c0,4.3,.09,8.08,.34,11.34h-6.7l-.43-6.79h-.17c-1.98,3.35-6.36,7.73-13.75,7.73-6.53,0-14.35-3.61-14.35-18.22v-24.32h7.56v23.03c0,7.91,2.41,13.23,9.28,13.23,5.07,0,8.59-3.52,9.97-6.88,.43-1.12,.69-2.49,.69-3.87v-25.52h7.56v30.25Z"/>
          <path class="cls-1" d="M326.3,85.08c-4.92,0-16.35-1.97-16.35-20.22v-26.32h11.56v25.03c0,9.96,3.89,11.23,7.28,11.23,4.29,0,7.05-3.04,8.12-5.63,.34-.88,.54-2.02,.54-3.11v-27.52h11.56v32.25c0,4.71,.11,8.27,.34,11.19l.17,2.16h-10.74l-.24-3.79c-2.53,2.35-6.51,4.74-12.23,4.74Zm-12.35-42.54v22.32c0,13.41,6.72,16.22,12.35,16.22,7.11,0,10.68-4.52,11.95-6.62-2.11,2.41-5.29,4.34-9.46,4.34-5.15,0-11.28-2.64-11.28-15.23v-21.03h-3.56Zm28.58,37.59h2.69c-.14-2.58-.21-5.61-.21-9.34v-28.25h-3.56v23.52c0,1.58-.29,3.21-.82,4.58-.36,.89-.86,1.81-1.5,2.7h2.97l.43,6.79Z"/>
        </g>
        <g>
          <path class="cls-1" d="M408.63,56.69c-.43-8.08-.95-17.79-.86-25.01h-.26c-1.98,6.79-4.38,14.01-7.3,22l-10.23,28.1h-5.67l-9.37-27.59c-2.75-8.16-5.07-15.64-6.7-22.52h-.17c-.17,7.22-.6,16.93-1.12,25.61l-1.55,24.84h-7.13l4.04-57.92h9.54l9.88,28.02c2.41,7.13,4.38,13.49,5.84,19.51h.26c1.46-5.84,3.52-12.2,6.1-19.51l10.31-28.02h9.54l3.61,57.92h-7.3l-1.46-25.44Z"/>
          <path class="cls-1" d="M419.53,84.13h-11.32l-1.57-27.33c-.22-4.2-.48-8.93-.65-13.54-1.18,3.52-2.47,7.21-3.9,11.12l-10.7,29.42h-8.51l-9.83-28.94c-1.32-3.91-2.45-7.4-3.42-10.59-.19,4.3-.42,8.81-.68,13.16l-1.66,26.72h-11.16l4.32-61.92h12.82l10.35,29.35c1.69,5.02,3.03,9.25,4.12,13.02,1.12-3.74,2.53-7.97,4.31-13.02l10.8-29.35h12.81l3.86,61.92Zm-7.54-4h3.29l-3.36-53.92h-6.26l-9.83,26.71c-2.87,8.14-4.74,14.1-6.04,19.3l-.38,1.51h-3.39l-.37-1.53c-1.3-5.34-3.08-11.3-5.8-19.34l-9.4-26.66h-6.26l-3.76,53.92h3.11l1.43-22.96c.53-8.9,.95-18.45,1.11-25.53l.05-1.95h3.71l.37,1.54c1.44,6.07,3.49,12.96,6.65,22.34l8.9,26.22h2.84l9.75-26.79c2.96-8.09,5.33-15.25,7.26-21.88l.42-1.44h3.78l-.02,2.02c-.09,7.17,.44,16.98,.86,24.87l1.35,23.55Z"/>
        </g>
        <g>
          <path class="cls-1" d="M433.39,62.71c.17,10.23,6.7,14.44,14.27,14.44,5.41,0,8.68-.95,11.52-2.15l1.29,5.41c-2.66,1.2-7.22,2.58-13.84,2.58-12.8,0-20.45-8.42-20.45-20.97s7.39-22.43,19.51-22.43c13.58,0,17.19,11.95,17.19,19.59,0,1.55-.17,2.75-.26,3.52h-29.22Zm22.17-5.41c.09-4.81-1.98-12.29-10.48-12.29-7.65,0-11,7.05-11.6,12.29h22.09Z"/>
          <path class="cls-1" d="M446.62,84.99c-13.64,0-22.45-9.02-22.45-22.97s8.84-24.43,21.51-24.43,19.19,10.85,19.19,21.59c0,1.44-.14,2.62-.23,3.4l-.24,2.12h-28.88c1.11,9.37,8.74,10.44,12.13,10.44,5.31,0,8.3-.96,10.73-1.99l2.18-.92,2.22,9.32-1.5,.68c-2.78,1.26-7.59,2.76-14.66,2.76Zm-.95-43.4c-10.47,0-17.51,8.21-17.51,20.43s7.07,18.97,18.45,18.97c5.19,0,8.96-.87,11.49-1.79l-.36-1.53c-2.42,.81-5.56,1.47-10.1,1.47-7.73,0-16.06-4.31-16.27-16.4l-.03-2.03h29.45c.04-.46,.06-.97,.06-1.52,0-1.8-.43-17.59-15.19-17.59Zm11.85,17.7h-26.29l.26-2.23c.8-7,5.32-14.06,13.59-14.06,3.55,0,6.45,1.13,8.63,3.35,3.59,3.65,3.89,8.89,3.85,10.98l-.03,1.96Zm-21.63-4h17.57c-.21-1.82-.84-4.35-2.6-6.14-1.4-1.43-3.35-2.15-5.78-2.15-5.49,0-8.17,4.52-9.18,8.29Z"/>
        </g>
        <g>
          <path class="cls-1" d="M508.16,21.11v50.27c0,3.7,.09,7.91,.34,10.74h-6.79l-.34-7.22h-.17c-2.32,4.64-7.39,8.16-14.18,8.16-10.05,0-17.79-8.51-17.79-21.14-.09-13.84,8.51-22.34,18.65-22.34,6.36,0,10.66,3.01,12.55,6.36h.17V21.11h7.56Zm-7.56,36.35c0-.95-.09-2.23-.34-3.18-1.12-4.81-5.24-8.77-10.91-8.77-7.82,0-12.46,6.88-12.46,16.07,0,8.42,4.12,15.38,12.29,15.38,5.07,0,9.71-3.35,11.09-9.02,.26-1.03,.34-2.06,.34-3.27v-7.22Z"/>
          <path class="cls-1" d="M487.01,85.08c-11.47,0-19.79-9.73-19.79-23.14-.05-7.5,2.38-14.1,6.82-18.57,3.7-3.72,8.61-5.77,13.83-5.77,4.17,0,7.91,1.19,10.72,3.32V19.11h11.56v52.27c0,2.57,.04,7.35,.34,10.56l.2,2.18h-10.89l-.18-3.83c-3.22,3.02-7.7,4.77-12.61,4.77Zm.86-43.48c-4.14,0-8.05,1.63-10.99,4.59-3.69,3.71-5.7,9.3-5.66,15.74,0,11.1,6.64,19.15,15.79,19.15,5.44,0,10-2.53,12.25-6.79-2.46,2.93-6.07,4.69-10.11,4.69-8.55,0-14.29-6.99-14.29-17.38s5.81-18.07,14.46-18.07c6.16,0,11.45,4.24,12.86,10.31,.35,1.3,.4,2.97,.4,3.63v7.22c0,1.48-.12,2.63-.4,3.75-.4,1.64-1.05,3.15-1.91,4.48h2.99l.34,7.22h2.74c-.17-3.07-.2-6.64-.2-8.74V23.11h-3.56v24.84h-3.34l-.57-1.02c-1.46-2.58-5.06-5.34-10.8-5.34Zm1.46,5.93c-6.35,0-10.46,5.52-10.46,14.07,0,6.47,2.7,13.38,10.29,13.38,4.38,0,8.06-3.01,9.14-7.5,.2-.81,.29-1.64,.29-2.79v-7.22c0-1.02-.1-2.04-.27-2.65-.85-3.67-3.95-7.29-8.98-7.29Z"/>
        </g>
      </g>
      <g>
        <g>
          <path class="cls-1" d="M187.99,102.47c-.08-1.59-.19-3.51-.17-4.93h-.05c-.39,1.34-.86,2.76-1.44,4.34l-2.02,5.54h-1.12l-1.85-5.44c-.54-1.61-1-3.08-1.32-4.44h-.03c-.03,1.42-.12,3.34-.22,5.05l-.31,4.9h-1.41l.8-11.43h1.88l1.95,5.53c.47,1.41,.86,2.66,1.15,3.85h.05c.29-1.15,.69-2.41,1.2-3.85l2.03-5.53h1.88l.71,11.43h-1.44l-.29-5.02Z"/>
          <path class="cls-1" d="M190.25,107.98h-2.45l-.32-5.49c-.03-.66-.07-1.38-.1-2.1-.18,.53-.38,1.08-.59,1.66l-2.14,5.87h-1.83l-1.96-5.78c-.18-.54-.35-1.05-.5-1.52-.03,.66-.07,1.34-.11,2l-.33,5.37h-2.41l.87-12.43h2.7l2.07,5.86c.29,.85,.52,1.58,.72,2.24,.2-.66,.45-1.39,.75-2.24l2.16-5.86h2.7l.77,12.43Zm-1.5-1h.44l-.65-10.43h-1.06l-1.91,5.2c-.56,1.6-.93,2.77-1.19,3.8l-.09,.38h-.78l-.14-.38c-.25-1.05-.61-2.22-1.14-3.81l-1.83-5.19h-1.06l-.73,10.43h.4l.28-4.43c.1-1.72,.19-3.64,.22-5.03v-.49h.9l.12,.38c.28,1.2,.69,2.55,1.31,4.4l1.73,5.1h.41l1.9-5.21c.58-1.59,1.05-3,1.43-4.31l.1-.36h.88l.04,.51c-.02,1.42,.09,3.35,.17,4.9l.26,4.55Z"/>
        </g>
        <g>
          <path class="cls-1" d="M202.15,102.13h-4.44v4.12h4.95v1.24h-6.42v-11.43h6.17v1.24h-4.7v3.61h4.44v1.22Z"/>
          <path class="cls-1" d="M203.16,107.98h-7.42v-12.43h7.17v2.24h-4.7v2.61h4.44v2.22h-4.44v3.12h4.95v2.24Zm-6.42-1h5.42v-.24h-4.95v-5.12h4.44v-.22h-4.44v-4.61h4.7v-.24h-5.17v10.43Z"/>
        </g>
        <g>
          <path class="cls-1" d="M208.81,96.21c.9-.14,1.97-.24,3.14-.24,2.12,0,3.63,.49,4.63,1.42,1.02,.93,1.61,2.25,1.61,4.1s-.58,3.39-1.64,4.44c-1.07,1.07-2.83,1.64-5.05,1.64-1.05,0-1.93-.05-2.68-.14v-11.24Zm1.47,10.1c.37,.07,.92,.08,1.49,.08,3.15,0,4.87-1.76,4.87-4.85,.02-2.7-1.51-4.41-4.63-4.41-.76,0-1.34,.07-1.73,.15v9.02Z"/>
          <path class="cls-1" d="M211.49,108.08c-1.01,0-1.93-.05-2.73-.14l-.44-.05v-12.12l.43-.06c1.07-.16,2.15-.24,3.21-.24,2.22,0,3.84,.51,4.97,1.56,1.17,1.08,1.77,2.58,1.77,4.47,0,1.98-.62,3.64-1.79,4.8-1.17,1.17-3.04,1.79-5.4,1.79Zm-2.18-1.09c.66,.06,1.39,.09,2.18,.09,2.06,0,3.73-.53,4.7-1.5,.98-.96,1.5-2.38,1.5-4.09,0-1.62-.47-2.84-1.45-3.73-.93-.87-2.34-1.29-4.29-1.29-.87,0-1.76,.06-2.64,.17v10.35Zm2.47-.1c-.74,0-1.23-.03-1.58-.09l-.41-.08v-9.84l.39-.09c.34-.08,.94-.16,1.84-.16,1.67,0,2.97,.46,3.86,1.35,.84,.84,1.28,2.07,1.27,3.56,0,3.4-1.96,5.35-5.37,5.35Zm-.99-1.03c.33,.02,.7,.03,.99,.03,2.86,0,4.37-1.5,4.37-4.35,0-1.23-.32-2.19-.98-2.85-.7-.7-1.76-1.06-3.15-1.06-.53,0-.93,.03-1.23,.07v8.15Z"/>
        </g>
        <g>
          <path class="cls-1" d="M225.81,96.06v11.43h-1.47v-11.43h1.47Z"/>
          <path class="cls-1" d="M226.31,107.98h-2.47v-12.43h2.47v12.43Zm-1.47-1h.47v-10.43h-.47v10.43Z"/>
        </g>
        <g>
          <path class="cls-1" d="M240.62,107.11c-.54,.27-1.63,.54-3.02,.54-3.22,0-5.65-2.04-5.65-5.78s2.42-6,5.97-6c1.42,0,2.32,.3,2.71,.51l-.36,1.2c-.56-.27-1.36-.47-2.31-.47-2.68,0-4.46,1.71-4.46,4.71,0,2.8,1.61,4.59,4.39,4.59,.9,0,1.81-.19,2.41-.47l.31,1.17Z"/>
          <path class="cls-1" d="M237.6,108.15c-3.73,0-6.15-2.47-6.15-6.28s2.66-6.5,6.47-6.5c1.68,0,2.62,.4,2.94,.57l.36,.19-.64,2.16-.53-.26c-.33-.16-1.03-.42-2.09-.42-2.48,0-3.96,1.58-3.96,4.21s1.45,4.09,3.89,4.09c.81,0,1.65-.16,2.19-.42l.55-.27,.56,2.15-.36,.18c-.58,.29-1.73,.6-3.24,.6Zm.32-11.78c-3.27,0-5.47,2.21-5.47,5.5s1.97,5.28,5.15,5.28c1.05,0,1.89-.16,2.42-.34l-.05-.2c-.61,.19-1.34,.3-2.07,.3-3.02,0-4.89-1.95-4.89-5.09s1.9-5.21,4.96-5.21c.7,0,1.39,.11,1.98,.31l.07-.25c-.39-.13-1.09-.3-2.11-.3Z"/>
        </g>
        <g>
          <path class="cls-1" d="M248.62,103.89l-1.19,3.59h-1.53l3.88-11.43h1.78l3.9,11.43h-1.58l-1.22-3.59h-4.05Zm3.75-1.15l-1.12-3.29c-.25-.75-.42-1.42-.59-2.09h-.03c-.17,.68-.36,1.37-.58,2.07l-1.12,3.31h3.44Z"/>
          <path class="cls-1" d="M256.17,107.98h-2.63l-1.22-3.59h-3.33l-1.19,3.59h-2.58l4.22-12.43h2.5l4.24,12.43Zm-1.92-1h.52l-3.56-10.43h-1.06l-3.54,10.43h.47l1.19-3.59h4.77l1.22,3.59Zm-1.19-3.75h-4.84l1.34-3.97c.19-.58,.37-1.23,.56-2.03l.09-.38h.78l.16,.49c.16,.62,.32,1.25,.55,1.94l1.34,3.95Zm-3.44-1h2.05l-.89-2.63c-.05-.14-.09-.28-.13-.41-.04,.13-.08,.26-.12,.39l-.9,2.65Z"/>
        </g>
        <g>
          <path class="cls-1" d="M261.38,96.06h1.47v10.19h4.88v1.24h-6.36v-11.43Z"/>
          <path class="cls-1" d="M268.24,107.98h-7.36v-12.43h2.47v10.19h4.88v2.24Zm-6.36-1h5.36v-.24h-4.88v-10.19h-.47v10.43Z"/>
        </g>
        <g>
          <path class="cls-1" d="M291.09,102.47c-.08-1.59-.19-3.51-.17-4.93h-.05c-.39,1.34-.87,2.76-1.44,4.34l-2.02,5.54h-1.12l-1.85-5.44c-.54-1.61-1-3.08-1.32-4.44h-.03c-.03,1.42-.12,3.34-.22,5.05l-.3,4.9h-1.41l.8-11.43h1.88l1.95,5.53c.47,1.41,.86,2.66,1.15,3.85h.05c.29-1.15,.7-2.41,1.2-3.85l2.03-5.53h1.88l.71,11.43h-1.44l-.29-5.02Z"/>
          <path class="cls-1" d="M293.35,107.98h-2.44l-.32-5.49,.5-.03-.5-.05c-.03-.63-.07-1.33-.1-2.03-.18,.53-.38,1.08-.59,1.66l-2.14,5.87h-1.83l-1.96-5.78c-.18-.55-.35-1.05-.5-1.52-.03,.66-.07,1.34-.11,2l-.33,5.37h-2.41l.87-12.43h2.7l2.07,5.86c.29,.84,.52,1.58,.72,2.24,.2-.66,.45-1.39,.75-2.24l2.16-5.86h2.7l.77,12.43Zm-1.5-1h.44l-.65-10.43h-1.06l-1.91,5.2c-.56,1.59-.93,2.77-1.19,3.8l-.09,.38h-.78l-.14-.38c-.25-1.05-.61-2.22-1.14-3.81l-1.83-5.19h-1.06l-.73,10.43h.4l.28-4.43c.1-1.76,.19-3.64,.22-5.03v-.49h.9l.12,.38c.28,1.19,.69,2.55,1.31,4.4l1.73,5.1h.41l1.9-5.21c.58-1.59,1.05-3,1.43-4.31l.1-.36h.88l.04,.51c-.02,1.38,.08,3.29,.16,4.82l-.5,.1,.5-.03,.26,4.55Z"/>
        </g>
        <g>
          <path class="cls-1" d="M309.09,101.65c0,3.93-2.39,6.02-5.31,6.02s-5.14-2.34-5.14-5.8c0-3.63,2.25-6,5.31-6s5.14,2.39,5.14,5.78Zm-8.87,.19c0,2.44,1.32,4.63,3.65,4.63s3.66-2.15,3.66-4.75c0-2.27-1.19-4.65-3.64-4.65s-3.66,2.25-3.66,4.76Z"/>
          <path class="cls-1" d="M303.79,108.17c-3.32,0-5.64-2.59-5.64-6.3s2.39-6.5,5.81-6.5,5.64,2.52,5.64,6.28c0,4.5-2.92,6.52-5.81,6.52Zm.17-11.8c-2.83,0-4.81,2.26-4.81,5.5s1.86,5.3,4.64,5.3c2.92,0,4.81-2.17,4.81-5.52,0-3.16-1.86-5.28-4.64-5.28Zm-.08,10.59c-2.72,0-4.15-2.58-4.15-5.13s1.29-5.26,4.16-5.26c2.72,0,4.14,2.59,4.14,5.15,0,3.09-1.71,5.25-4.16,5.25Zm.02-9.39c-2.18,0-3.16,2.14-3.16,4.26,0,1.99,.98,4.13,3.15,4.13s3.16-2.13,3.16-4.25c0-2-.98-4.15-3.14-4.15Z"/>
        </g>
        <g>
          <path class="cls-1" d="M315.25,107.48v-11.43h1.61l3.66,5.78c.85,1.34,1.51,2.54,2.05,3.71l.03-.02c-.14-1.53-.17-2.92-.17-4.7v-4.78h1.39v11.43h-1.49l-3.63-5.8c-.8-1.27-1.56-2.58-2.14-3.81l-.05,.02c.08,1.44,.12,2.81,.12,4.71v4.88h-1.39Z"/>
          <path class="cls-1" d="M324.33,107.98h-2.27l-3.77-6.03c-.45-.71-.84-1.36-1.17-1.96,.02,.78,.03,1.62,.03,2.61v5.38h-2.39v-12.43h2.39l3.81,6.01c.37,.59,.71,1.16,1.03,1.72-.03-.79-.03-1.59-.03-2.45v-5.28h2.39v12.43Zm-1.71-1h.71v-10.43h-.39v4.28c0,1.67,.03,3.09,.17,4.65l.03,.34-.77,.38-.25-.45c-.54-1.17-1.2-2.36-2.02-3.66l-3.51-5.55h-.84v10.43h.39v-4.38c0-1.9-.03-3.26-.12-4.68l-.02-.38,.78-.27,.24,.39c.5,1.06,1.17,2.26,2.11,3.76l3.48,5.56Z"/>
        </g>
        <g>
          <path class="cls-1" d="M332.12,96.06v11.43h-1.48v-11.43h1.48Z"/>
          <path class="cls-1" d="M332.62,107.98h-2.48v-12.43h2.48v12.43Zm-1.48-1h.48v-10.43h-.48v10.43Z"/>
        </g>
        <g>
          <path class="cls-1" d="M341.1,97.31h-3.47v-1.25h8.46v1.25h-3.49v10.17h-1.49v-10.17Z"/>
          <path class="cls-1" d="M343.09,107.98h-2.49v-10.17h-3.47v-2.25h9.46v2.25h-3.49v10.17Zm-1.49-1h.49v-10.17h3.49v-.25h-7.46v.25h3.47v10.17Z"/>
        </g>
        <g>
          <path class="cls-1" d="M360.9,101.65c0,3.93-2.39,6.02-5.31,6.02s-5.14-2.34-5.14-5.8c0-3.63,2.25-6,5.31-6s5.14,2.39,5.14,5.78Zm-8.87,.19c0,2.44,1.32,4.63,3.65,4.63s3.66-2.15,3.66-4.75c0-2.27-1.19-4.65-3.64-4.65s-3.66,2.25-3.66,4.76Z"/>
          <path class="cls-1" d="M355.6,108.17c-3.32,0-5.64-2.59-5.64-6.3s2.39-6.5,5.81-6.5,5.64,2.52,5.64,6.28c0,4.5-2.92,6.52-5.81,6.52Zm.17-11.8c-2.83,0-4.81,2.26-4.81,5.5s1.86,5.3,4.64,5.3c2.92,0,4.81-2.17,4.81-5.52,0-3.16-1.86-5.28-4.64-5.28Zm-.08,10.59c-2.72,0-4.15-2.58-4.15-5.13s1.29-5.26,4.16-5.26c2.72,0,4.14,2.59,4.14,5.15,0,3.09-1.71,5.25-4.16,5.25Zm.02-9.39c-2.18,0-3.16,2.14-3.16,4.26,0,1.99,.98,4.13,3.15,4.13s3.16-2.13,3.16-4.25c0-2-.98-4.15-3.14-4.15Z"/>
        </g>
        <g>
          <path class="cls-1" d="M367.06,96.21c.75-.15,1.81-.24,2.83-.24,1.58,0,2.59,.29,3.31,.93,.58,.51,.9,1.29,.9,2.17,0,1.51-.95,2.51-2.15,2.92v.05c.88,.3,1.41,1.12,1.68,2.31,.37,1.59,.64,2.7,.88,3.14h-1.53c-.19-.32-.44-1.31-.76-2.73-.34-1.58-.95-2.17-2.29-2.22h-1.39v4.95h-1.48v-11.27Zm1.48,5.2h1.51c1.58,0,2.58-.86,2.58-2.17,0-1.47-1.07-2.12-2.63-2.14-.71,0-1.22,.07-1.46,.14v4.17Z"/>
          <path class="cls-1" d="M375.34,107.98h-2.65l-.14-.25c-.2-.35-.43-1.15-.82-2.87-.33-1.51-.85-1.79-1.82-1.83h-.87v4.95h-2.48v-12.18l.4-.08c.76-.15,1.85-.25,2.93-.25,1.71,0,2.83,.33,3.64,1.06,.68,.6,1.06,1.51,1.06,2.54,0,1.28-.6,2.34-1.64,2.99,.54,.47,.93,1.2,1.15,2.17,.33,1.41,.62,2.62,.83,3.01l.4,.74Zm-2.04-1h.47c-.17-.55-.37-1.35-.64-2.52-.25-1.08-.69-1.72-1.35-1.95l-.34-.12v-.71l.34-.17c.54-.18,1.81-.79,1.81-2.44,0-.74-.26-1.38-.73-1.79-.62-.56-1.53-.81-2.98-.81-.83,0-1.67,.06-2.33,.16v10.35h.48v-4.95h1.89c1.59,.06,2.39,.82,2.78,2.62,.1,.46,.39,1.74,.6,2.33Zm-3.26-5.07h-2.01v-5.05l.36-.1c.34-.1,.94-.15,1.59-.15,1.99,.02,3.13,.98,3.13,2.64s-1.24,2.67-3.08,2.67Zm-1.01-1h1.01c1.28,0,2.08-.64,2.08-1.67,0-.4,0-1.61-2.13-1.64-.39,0-.72,.02-.95,.05v3.25Z"/>
        </g>
        <g>
          <path class="cls-1" d="M381.89,96.06v11.43h-1.48v-11.43h1.48Z"/>
          <path class="cls-1" d="M382.39,107.98h-2.48v-12.43h2.48v12.43Zm-1.48-1h.48v-10.43h-.48v10.43Z"/>
        </g>
        <g>
          <path class="cls-1" d="M388.71,107.48v-11.43h1.61l3.66,5.78c.85,1.34,1.51,2.54,2.05,3.71l.03-.02c-.14-1.53-.17-2.92-.17-4.7v-4.78h1.39v11.43h-1.49l-3.63-5.8c-.8-1.27-1.56-2.58-2.14-3.81l-.05,.02c.08,1.44,.12,2.81,.12,4.71v4.88h-1.39Z"/>
          <path class="cls-1" d="M397.79,107.98h-2.27l-3.77-6.03c-.45-.71-.84-1.36-1.17-1.96,.02,.78,.03,1.62,.03,2.61v5.38h-2.39v-12.43h2.39l3.81,6.01c.37,.59,.71,1.16,1.03,1.72-.03-.79-.03-1.59-.03-2.45v-5.28h2.39v12.43Zm-1.71-1h.71v-10.43h-.39v4.28c0,1.67,.03,3.09,.17,4.65l.03,.34-.77,.38-.25-.45c-.54-1.17-1.2-2.36-2.02-3.66l-3.51-5.55h-.84v10.43h.39v-4.38c0-1.9-.03-3.26-.12-4.68l-.02-.38,.78-.27,.24,.39c.5,1.06,1.17,2.26,2.11,3.76l3.48,5.56Z"/>
        </g>
        <g>
          <path class="cls-1" d="M412.8,106.97c-.66,.24-1.97,.63-3.51,.63-1.73,0-3.15-.44-4.27-1.51-.98-.95-1.59-2.48-1.59-4.26,.02-3.41,2.36-5.9,6.19-5.9,1.32,0,2.36,.29,2.85,.53l-.36,1.2c-.61-.27-1.37-.49-2.53-.49-2.78,0-4.59,1.73-4.59,4.59s1.75,4.61,4.41,4.61c.97,0,1.63-.14,1.97-.31v-3.41h-2.32v-1.19h3.76v5.49Z"/>
          <path class="cls-1" d="M409.29,108.1c-1.95,0-3.46-.54-4.62-1.65-1.11-1.07-1.75-2.76-1.75-4.62,.02-3.83,2.71-6.4,6.69-6.4,1.38,0,2.49,.3,3.06,.58l.38,.18-.64,2.16-.52-.23c-.47-.21-1.16-.45-2.32-.45-2.56,0-4.09,1.53-4.09,4.09s1.46,4.11,3.91,4.11c.66,0,1.15-.07,1.47-.15v-2.56h-2.32v-2.19h4.76v6.34l-.33,.12c-.84,.3-2.15,.66-3.68,.66Zm.32-11.66c-3.44,0-5.67,2.12-5.69,5.4,0,1.59,.53,3.01,1.44,3.89,.96,.92,2.25,1.37,3.92,1.37,1.2,0,2.25-.24,3.01-.49v-4.63h-2.76v.19h2.32v4.22l-.28,.14c-.46,.23-1.24,.36-2.19,.36-2.98,0-4.91-2.01-4.91-5.11s2-5.09,5.09-5.09c.98,0,1.69,.16,2.2,.33l.07-.24c-.52-.17-1.3-.32-2.24-.32Z"/>
        </g>
        <g>
          <path class="cls-1" d="M427.13,96.21c.9-.14,1.97-.24,3.14-.24,2.12,0,3.63,.49,4.63,1.42,1.02,.93,1.61,2.25,1.61,4.1s-.58,3.39-1.64,4.44c-1.07,1.07-2.83,1.64-5.05,1.64-1.05,0-1.93-.05-2.68-.14v-11.24Zm1.48,10.1c.37,.07,.92,.08,1.49,.08,3.15,0,4.87-1.76,4.87-4.85,.02-2.7-1.51-4.41-4.63-4.41-.76,0-1.34,.07-1.73,.15v9.02Z"/>
          <path class="cls-1" d="M429.81,108.08c-1.01,0-1.93-.05-2.74-.14l-.44-.05v-12.12l.43-.06c1.07-.16,2.15-.24,3.21-.24,2.22,0,3.84,.51,4.97,1.56,1.17,1.08,1.77,2.58,1.77,4.47,0,1.98-.62,3.64-1.79,4.8-1.17,1.17-3.04,1.79-5.4,1.79Zm-2.18-1.09c.66,.06,1.39,.09,2.18,.09,2.06,0,3.73-.53,4.7-1.5,.98-.96,1.5-2.38,1.5-4.09,0-1.62-.47-2.84-1.45-3.73-.93-.87-2.34-1.29-4.29-1.29-.87,0-1.76,.06-2.64,.17v10.35Zm2.47-.1c-.74,0-1.23-.03-1.58-.09l-.41-.08v-9.84l.39-.09c.34-.08,.94-.16,1.83-.16,1.67,0,2.97,.46,3.86,1.36,.84,.84,1.28,2.07,1.27,3.55,0,3.4-1.96,5.35-5.37,5.35Zm-.99-1.03c.33,.02,.7,.03,.99,.03,2.86,0,4.37-1.5,4.37-4.35,0-1.23-.32-2.19-.98-2.85-.7-.7-1.76-1.06-3.15-1.06-.53,0-.93,.03-1.23,.07v8.15Z"/>
        </g>
        <g>
          <path class="cls-1" d="M448.57,102.13h-4.44v4.12h4.95v1.24h-6.43v-11.43h6.17v1.24h-4.7v3.61h4.44v1.22Z"/>
          <path class="cls-1" d="M449.58,107.98h-7.43v-12.43h7.17v2.24h-4.7v2.61h4.44v2.22h-4.44v3.12h4.95v2.24Zm-6.43-1h5.43v-.24h-4.95v-5.12h4.44v-.22h-4.44v-4.61h4.7v-.24h-5.17v10.43Z"/>
        </g>
        <g>
          <path class="cls-1" d="M457.9,107.48l-3.73-11.43h1.59l1.78,5.63c.49,1.54,.92,2.93,1.22,4.27h.03c.32-1.32,.8-2.76,1.3-4.26l1.93-5.64h1.58l-4.09,11.43h-1.63Z"/>
          <path class="cls-1" d="M459.88,107.98h-2.34l-4.06-12.43h2.65l1.89,5.98c.3,.93,.55,1.77,.78,2.55,.26-.87,.56-1.75,.83-2.55l2.05-5.98h2.64l-4.44,12.43Zm-1.62-1h.91l3.73-10.43h-.51l-1.82,5.31c-.45,1.33-.96,2.85-1.29,4.21l-.09,.38h-.79l-.12-.39c-.29-1.27-.69-2.61-1.21-4.23l-1.67-5.28h-.54l3.4,10.43Z"/>
        </g>
        <g>
          <path class="cls-1" d="M470.56,96.06v11.43h-1.48v-11.43h1.48Z"/>
          <path class="cls-1" d="M471.06,107.98h-2.48v-12.43h2.48v12.43Zm-1.48-1h.48v-10.43h-.48v10.43Z"/>
        </g>
        <g>
          <path class="cls-1" d="M485.36,107.11c-.54,.27-1.63,.54-3.02,.54-3.22,0-5.65-2.04-5.65-5.78s2.42-6,5.97-6c1.42,0,2.32,.3,2.71,.51l-.36,1.2c-.56-.27-1.36-.47-2.3-.47-2.68,0-4.46,1.71-4.46,4.71,0,2.8,1.61,4.59,4.39,4.59,.9,0,1.81-.19,2.41-.47l.31,1.17Z"/>
          <path class="cls-1" d="M482.35,108.15c-3.73,0-6.15-2.47-6.15-6.28s2.66-6.5,6.47-6.5c1.68,0,2.62,.4,2.94,.57l.36,.19-.64,2.16-.53-.26c-.33-.16-1.03-.42-2.09-.42-2.48,0-3.96,1.58-3.96,4.21s1.45,4.09,3.89,4.09c.8,0,1.66-.17,2.19-.42l.55-.27,.56,2.15-.36,.18c-.58,.29-1.73,.6-3.24,.6Zm.32-11.78c-3.27,0-5.47,2.21-5.47,5.5s1.97,5.28,5.15,5.28c1.05,0,1.89-.16,2.42-.34l-.05-.2c-.61,.19-1.34,.3-2.07,.3-3.02,0-4.89-1.95-4.89-5.09s1.9-5.21,4.96-5.21c.7,0,1.39,.11,1.98,.31l.07-.25c-.39-.13-1.09-.3-2.11-.3Z"/>
        </g>
        <g>
          <path class="cls-1" d="M497.37,102.13h-4.44v4.12h4.95v1.24h-6.43v-11.43h6.17v1.24h-4.7v3.61h4.44v1.22Z"/>
          <path class="cls-1" d="M498.38,107.98h-7.43v-12.43h7.17v2.24h-4.7v2.61h4.44v2.22h-4.44v3.12h4.95v2.24Zm-6.43-1h5.43v-.24h-4.95v-5.12h4.44v-.22h-4.44v-4.61h4.7v-.24h-5.17v10.43Z"/>
        </g>
        <g>
          <path class="cls-1" d="M503.83,105.69c.66,.41,1.63,.75,2.64,.75,1.51,0,2.39-.8,2.39-1.95,0-1.07-.61-1.68-2.15-2.27-1.86-.66-3.02-1.63-3.02-3.24,0-1.78,1.47-3.1,3.7-3.1,1.17,0,2.02,.27,2.53,.56l-.41,1.2c-.37-.2-1.14-.54-2.17-.54-1.56,0-2.15,.93-2.15,1.71,0,1.07,.69,1.59,2.27,2.2,1.93,.75,2.92,1.68,2.92,3.36,0,1.76-1.31,3.29-4,3.29-1.1,0-2.31-.32-2.92-.73l.37-1.24Z"/>
          <path class="cls-1" d="M506.37,108.15c-1.16,0-2.48-.33-3.19-.81l-.31-.21,.67-2.21,.55,.34c.68,.42,1.57,.67,2.38,.67,1.18,0,1.89-.54,1.89-1.45,0-.71-.29-1.21-1.83-1.8-2.24-.79-3.34-2.01-3.34-3.7,0-2.09,1.76-3.6,4.2-3.6,1.45,0,2.36,.39,2.77,.62l.36,.2-.73,2.16-.52-.28c-.4-.22-1.06-.48-1.93-.48-1.22,0-1.65,.65-1.65,1.21,0,.67,.29,1.1,1.95,1.74,1.6,.62,3.24,1.55,3.24,3.82,0,1.89-1.39,3.79-4.5,3.79Zm-2.32-1.47c.55,.25,1.44,.47,2.32,.47,2.58,0,3.5-1.44,3.5-2.79s-.73-2.17-2.6-2.89c-1.64-.64-2.59-1.28-2.59-2.67,0-1.07,.83-2.21,2.65-2.21,.76,0,1.39,.16,1.88,.35l.09-.25c-.4-.16-1.03-.32-1.91-.32-1.88,0-3.2,1.07-3.2,2.6,0,1.25,.83,2.11,2.68,2.77,1.3,.5,2.49,1.17,2.49,2.74,0,1.47-1.16,2.45-2.89,2.45-.79,0-1.61-.19-2.34-.52l-.08,.27Z"/>
        </g>
      </g>
      <g id="logo">
        <path class="cls-1" d="M.01,59.01c12.83-.35,26.88-.53,39.74-.67,0,0,.59,0,.59,0l.08,.59,3.44,26.99h-1.45S53.14,10.3,53.14,10.3l.89-6.24,.67,6.27,9.8,92.34-1.6-.06,7.95-43.75,.13-.7c.9,0,9.05-.03,9.95-.04l.15,.71,7.46,35.1-1.8,.08,7.26-57.51,.58-4.57,1.17,4.46,8.83,33.68-1.69,.09,7.9-51.76,.87-5.68,.78,5.69,9.24,67.51-1.56-.07c1.8-7.52,4.59-19.36,6.46-26.96,0,0,.12-.48,.12-.48h.49c12.48,.06,31.44,.25,43.79,.63-12.29,.37-31.31,.56-43.79,.62,0,0,.61-.48,.61-.48-1.79,7.65-4.31,19.48-6.12,27.04,0,0-.97,4.22-.97,4.22l-.59-4.29-9.31-67.5h1.65s-7.83,51.78-7.83,51.78l-.63,4.14c-.38-1.4-9.31-35.36-9.94-37.71,0,0,1.74-.12,1.74-.12l-7.21,57.52-.68,5.41-1.13-5.33-7.42-35.11,.87,.71-8.5-.03,.85-.71-8.05,43.73-1.02,5.52-.59-5.58L53.14,10.49l1.55,.03-10.84,75.6-.78,5.45c-.34-3.14-3.55-28.66-3.98-32.47,0,0,.66,.58,.66,.58-12.85-.14-26.91-.32-39.74-.67H.01Z"/>
        <path class="cls-1" d="M63.34,111.91l-.93-8.82h-.11s.07-.39,.07-.39L53.72,20.79l-9.35,65.23,.05,.4h-.11s-1.31,9.16-1.31,9.16l-.43-3.97c-.08-.73-.31-2.64-.62-5.21h-.12s.07-.46,.07-.46c-.41-3.3-.94-7.57-1.46-11.77-.73-5.85-1.42-11.43-1.73-14.01-11.98-.13-25.82-.31-38.71-.66v-1c13.1-.35,27.44-.54,39.75-.67h1.03s.31,2.35,.31,2.35h-.01s2.12,16.6,2.12,16.6L52.63,10.38l-.04-.4h.1s1.42-9.98,1.42-9.98l1.06,10.03h.1s-.06,.41-.06,.41l8.82,83.11,6.52-35.89h.42c.9,0,9.05-.04,9.95-.04h.41s5.96,28.01,5.96,28.01l6.18-48.93-.09-.33h.13s.89-7.08,.89-7.08l1.81,6.89h.13s-.04,.33-.04,.33l7.08,27.02,6.87-45.03-.05-.38h.11s1.36-8.91,1.36-8.91l1.22,8.93h.11s-.06,.38-.06,.38l8.27,60.46c.1-.41,.2-.83,.3-1.25,1.4-5.89,2.97-12.5,4.22-17.59h0c.12-.48,.23-.94,.34-1.39h0c.02-.11,.06-.26,.11-.48l.09-.39h.89c.45,0,.91,.01,1.38,.01l.03-.03v.03c13.1,.07,30.69,.26,42.38,.62v1c-11.87,.36-30.31,.55-42.91,.62-.76,3.3-1.63,7.21-2.55,11.34-1.15,5.17-2.34,10.51-3.31,14.61l.05,.35h-.13s-1.55,6.74-1.55,6.74l-.95-6.87h-.14s.08-.36,.08-.36l-8.02-58.13-6.41,42.38,.08,.32h-.13s-.97,6.44-.97,6.44l-.62-2.29c-.07-.27-.47-1.76-1.06-4.01h-.13s.05-.31,.05-.31c-1.05-3.99-2.68-10.18-4.28-16.24-.97-3.67-1.91-7.27-2.69-10.21l-6.29,50.16,.07,.35h-.12s-1.03,8.25-1.03,8.25l-1.72-8.13h-.12s.04-.35,.04-.35l-7.14-33.77-6.24-.02-7.81,42.43,.04,.39h-.11s-1.61,8.72-1.61,8.72Zm.08-8.78l.19,1.8,.33-1.78-.52-.02Zm.07-1l.45,.02-.17-1.58-.28,1.56Zm.92-5.05l.24,2.23,7.17-38.93h-.73s-6.67,36.7-6.67,36.7ZM54.3,16.75l8.7,82.45,.39-2.17L54.63,14.46l-.33,2.29Zm32.98,77.72l.45,2.14,.27-2.17-.73,.03Zm.24-2.85l-.23,1.85,.62-.03-.39-1.83Zm-7.44-31.22l6.5,30.74,.32-2.5-6-28.24h-.81Zm7.82,28.2l.52,2.46,6.24-49.77c-.2-.76-.38-1.44-.54-2.03l-6.23,49.33Zm-44.95-2.19c.06,.46,.11,.89,.16,1.3l.19-1.3h-.35Zm77.64-.06l.18,1.29,.29-1.27-.47-.02Zm-77.62-.94h.31s-.15-1.14-.15-1.14l-.16,1.14Zm77.73-.05l.36,.02-.13-.96c-.08,.32-.15,.64-.23,.95Zm.87-3.64l.22,1.59c.84-3.64,1.79-7.91,2.72-12.06,.9-4.03,1.75-7.86,2.5-11.12h-.26c-1.25,5.13-2.85,11.85-4.27,17.83-.31,1.29-.61,2.55-.89,3.76Zm-9.53-57.4l8.13,58.94c.12-.52,.25-1.05,.38-1.6l-8.16-59.65-.35,2.3ZM43.67,80.54l.22,1.76L53.3,16.73l-.24-2.27-9.38,66.07Zm-3.95-20.36c.31,2.63,1,8.12,1.71,13.88,.34,2.76,.69,5.56,1,8.09l.23-1.61-2.6-20.35h-.32s-.02,0-.03,0Zm63.7,10.43c.14,.54,.27,1.03,.39,1.47l.23-1.5-.62,.03Zm.2-2.15l-.17,1.14,.47-.03-.29-1.12Zm-7.93-27.23c.86,3.26,2.07,7.87,3.32,12.62,1.32,5.03,2.67,10.14,3.69,14.01l.28-1.84-7.04-26.85-.26,2.06Zm8.31,24.74l.47,1.78,6.57-43.43-.32-2.34-6.71,43.99Zm-24.6-7.35l1.34,1.09-.23-1.09c-.28,0-.66,0-1.11,0Zm-8.01,.03l-.18,.97,1.17-.98c-.4,0-.74,0-.99,0Zm1.62,.73l5.84,.02-.16-.78c-1.66,0-3.89,.01-5.54,.02l-.14,.74Zm-33.44-.53l.38,.33-.04-.34h-.14c-.06,0-.13,0-.19,0Zm-13.71,.17c4.39,.06,8.67,.11,12.74,.15h0s-.03-.31-.03-.31c-4.07,.04-8.34,.09-12.71,.15Zm102.47-.12l-.05,.23c4.39-.02,9.48-.06,14.74-.12-5.15-.05-10.19-.09-14.69-.12Zm-1.27,0l-.02,.1s-.02,.08-.03,.12l.28-.22s-.09,0-.14,0h-.09Zm-32.4-21.6c.09,.34,.21,.8,.36,1.36l.17-1.39-.53,.04Zm.09-2.74l-.22,1.75,.67-.04-.45-1.7Zm16.6-15.42l.23,1.7,.26-1.7h-.49Zm-.03-1h.56s-.27-1.93-.27-1.93l-.3,1.93Zm-57.61-7.12l.18,1.69,.24-1.68h-.42Zm0-1.01h.47s-.2-1.88-.2-1.88l-.27,1.88Z"/>
      </g>
    </g>
  </g>
</svg>