<?xml version="1.0" encoding="UTF-8"?>
<svg id="Layer_1" xmlns="http://www.w3.org/2000/svg" xmlns:xlink="http://www.w3.org/1999/xlink" version="1.1" viewBox="0 0 2650.9 316.9">
  <!-- Generator: Adobe Illustrator 29.2.1, SVG Export Plug-In . SVG Version: 2.1.0 Build 116)  -->
  <defs>
    <style>
      .st0 {
        fill: #243746;
      }
    </style>
  </defs>
  <path class="st0" d="M2605.7,82.2c13.3,23.2,20.3,49.5,20.3,76.3,0,85-69.1,154.1-154.1,154.1s-63-9.9-89-28.4c-5.7-4.1-11.1-8.5-16.2-13.3-1-1-2-1.9-3-2.9s-1.9-1.9-2.8-2.9q-.1-.1-.2-.2c-.8-.8-1.6-1.6-2.3-2.5-.6-.6-1.2-1.3-1.8-2s-1.2-1.4-1.8-2.1c-.8-.9-1.6-1.9-2.3-2.8-1.5-1.8-2.9-3.6-4.2-5.5-.7-.9-1.4-1.9-2-2.8s-1.3-1.9-2-2.9-1.3-1.9-1.9-2.9c-1-1.6-2-3.2-3-4.9-.8-1.3-1.5-2.6-2.2-3.9v-.2c-.1,0-2-3.5-2-3.5l-.2-.4c-11.2-21.7-17-45.8-16.9-70.2,0-47-38.1-85.1-85.1-85.1s-85.1,38.1-85.1,85.1,1.3,17.3,3.9,25.6l-52,52c-13.7-23.5-21-50.3-20.9-77.5,0-85,69.1-154.1,154.1-154.1s79.5,16,108.3,44.6c1,1,2,2,2.9,3s1.9,2,2.9,3.1c.6.6,1.1,1.3,1.7,1.9s1,1.1,1.5,1.7c.8.9,1.6,1.8,2.3,2.8,1.5,1.8,2.9,3.6,4.2,5.5.7.9,1.4,1.9,2,2.8s1.3,1.9,2,2.9,1.3,1.9,1.9,2.9c1,1.6,2,3.2,3,4.9.8,1.3,1.5,2.6,2.2,3.9,0,0,.1,0,.1.2l1.9,3.5.2.4c11.2,21.7,17,45.8,16.9,70.2,0,47,38,85.1,85,85.1s85.1-38,85.1-85-1.2-16.4-3.5-24.2l52.1-52.3ZM2334.5,270c-6.7-8.3-12.7-17.1-17.8-26.5h-94.5l22.1-22.1,37.4-37.4-48.8-48.8-54,54-16.7,16.7-49.3,49.2-16.3,16.3-41,41h329c-19.2-10.8-36.2-25.2-50.1-42.4Z"/>
  <path class="st0" d="M2320.1,4.4c13.6,7.7,26.1,17.2,37.2,28.2,1.1,1.1,2.2,2.2,3.3,3.4s2.3,2.5,3.3,3.5c.7.7,1.3,1.5,2,2.2s1.2,1.4,1.8,2.1c.9,1,1.7,2,2.6,3.1,1.7,2.1,3.4,4.2,4.9,6.3.8,1.1,1.6,2.2,2.4,3.3s1.6,2.2,2.3,3.3c.5.8,1,1.5,1.5,2.3l.6,1c1.1,1.7,2.2,3.6,3.4,5.6.8,1.4,1.6,2.8,2.4,4.3.1,0,.2.3.2.4h96.4l-61.5,61.5,48.8,48.8L2650.9,4.4h-330.8Z"/>
  <path class="st0" d="M163.9.1c41.5,1,72.7,14.6,101.4,40.9,3.5,2.8,4,8,1.2,11.5-.2.3-.5.6-.8.8l-34.3,35.6c-3,3-7.9,3.1-10.9,0h-.1c-16.4-14.6-37.5-22.5-59.4-22.5-49.7,0-86.3,41.4-86.3,90.7s37,89.4,86.7,89.4,43.1-7.5,59-21.1c3.1-2.6,8.8-2.6,11.4.4l34.3,36.5c3.1,3.1,2.6,8.8-.4,11.9-29.9,29-67.8,42.7-106.9,42.7-100.4,0-178.5-91-154.6-196C21,47.6,88.9-1.8,163.9.1Z"/>
  <path class="st0" d="M316.4,12.8c0-4.6,3.7-8.4,8.3-8.4h131.6c52.8,0,95.9,42.7,95.9,95.1s-26.8,73.1-65.1,88.5l60.3,111.8c3.1,5.7,0,12.8-7.5,12.8h-58.5c-2.9,0-5.5-1.5-7-4l-58.5-116.6h-30.4v112.2c0,4.6-3.8,8.3-8.4,8.4h-52.4c-4.6,0-8.4-3.7-8.4-8.3h0V12.8h0ZM450.7,136c18,0,33.5-16.7,33.5-35.2-.1-18.4-15-33.3-33.5-33.4h-65.1v68.6h65.1Z"/>
  <path class="st0" d="M600.3,12.8c0-4.6,3.7-8.4,8.3-8.4h182.3c4.6,0,8.4,3.7,8.4,8.3h0v48c0,4.6-3.7,8.4-8.3,8.4h-122v54.5h100.4c4.6,0,8.3,3.7,8.4,8.4v48c0,4.6-3.7,8.4-8.3,8.4h-100.6v59.4h122c4.6,0,8.4,3.7,8.4,8.3h0v48c0,4.6-3.7,8.4-8.3,8.4h-182.3c-4.6,0-8.4-3.7-8.4-8.3h0V12.8Z"/>
  <path class="st0" d="M837.6,301L975.4,4.8c1.5-2.8,4.3-4.7,7.5-4.8h4.4c3.2.2,6,2,7.5,4.8l137.7,296.2c2.6,5.7-.9,11.4-7.5,11.4h-48.8c-7.9,0-11.4-2.6-15.4-11l-15.8-34.8h-119.8l-15.8,35.2c-2.5,6.5-8.8,10.8-15.8,10.6h-48.4c-6.7,0-10.2-5.6-7.6-11.4ZM1018.5,206.9l-33.4-72.6h-.4l-33,72.6h66.8Z"/>
  <path class="st0" d="M1184.8,69.1h-62.9c-4.6,0-8.4-3.7-8.4-8.3h0V12.8c0-4.6,3.7-8.4,8.3-8.4h195.4c4.6,0,8.4,3.7,8.4,8.3h0v48c0,4.6-3.7,8.4-8.3,8.4h-62.9v235c0,4.6-3.7,8.3-8.4,8.4h-52.8c-4.6,0-8.3-3.7-8.4-8.4V69.1Z"/>
  <path class="st0" d="M1376.2,12.8c0-4.6,3.7-8.3,8.4-8.4h52.8c4.6,0,8.3,3.7,8.4,8.4v291.4c0,4.6-3.7,8.3-8.4,8.4h-52.8c-4.6,0-8.3-3.7-8.4-8.4V12.8Z"/>
  <path class="st0" d="M1484.5,15.8c-2.6-5.7.9-11.4,7.5-11.4h58.5c3.2,0,6.1,2,7.5,4.8l72.6,160.6h2.6l72.6-160.6c1.4-2.9,4.3-4.7,7.5-4.8h58.6c6.6,0,10.1,5.7,7.5,11.4l-138.2,296.2c-1.4,2.9-4.3,4.8-7.5,4.8h-4.4c-3.2,0-6.1-1.9-7.5-4.8L1484.5,15.8Z"/>
  <path class="st0" d="M1811.9,12.8c0-4.6,3.7-8.4,8.3-8.4h182.2c4.6,0,8.4,3.7,8.4,8.3h0v48c0,4.6-3.7,8.4-8.4,8.4h-121.9v54.5h100.3c4.6,0,8.3,3.7,8.4,8.4v48c0,4.6-3.7,8.4-8.4,8.4h-100.3v59.4h121.9c4.6,0,8.4,3.7,8.4,8.3h0v48c0,4.6-3.7,8.4-8.4,8.4h-182.2c-4.6,0-8.4-3.7-8.4-8.3h0V12.8Z"/>
</svg>