<?xml version="1.0" encoding="UTF-8"?>
<svg id="Layer_2" data-name="Layer 2" xmlns="http://www.w3.org/2000/svg" viewBox="0 0 1080 389.32">
  <defs>
    <style>
      .cls-1 {
        fill: #73123d;
      }
    </style>
  </defs>
  <g id="Layer_1-2" data-name="Layer 1">
    <g>
      <g>
        <path class="cls-1" d="M0,0V388.9H113.27V130.28h23.25l4.54,9.97h7.62l4.62-9.97h23.42V388.9h113.27V0H0ZM145.03,119.1c-21.96,0-39.7-17.74-39.7-39.62s17.74-39.62,39.7-39.62,39.62,17.74,39.62,39.62-17.74,39.62-39.62,39.62Z"/>
        <polygon class="cls-1" points="154.51 206.93 145.03 214.95 135.55 206.93 141.06 143.89 148.92 143.89 154.51 206.93"/>
      </g>
      <g>
        <path class="cls-1" d="M521.69,278.66c9.11,11.7,13.67,25.07,13.67,40.09,0,21.68-7.57,38.86-22.72,51.55-15.15,12.69-36.27,19.03-63.37,19.03h-120.83V129.93h116.76c26.36,0,46.99,6.04,61.89,18.11,14.9,12.07,22.36,28.45,22.36,49.14,0,15.27-4.01,27.96-12.01,38.06-8.01,10.1-18.66,17.12-31.96,21.06,15.02,3.2,27.1,10.66,36.21,22.36Zm-130.06-43.79h41.38c10.35,0,18.29-2.28,23.83-6.84,5.54-4.55,8.31-11.27,8.31-20.14s-2.77-15.64-8.31-20.32c-5.54-4.68-13.49-7.02-23.83-7.02h-41.38v54.32Zm71.13,96.26c5.78-4.81,8.68-11.76,8.68-20.88s-3.02-16.26-9.05-21.43c-6.04-5.17-14.35-7.76-24.94-7.76h-45.82v57.28h46.56c10.59,0,18.78-2.4,24.57-7.2Z"/>
        <path class="cls-1" d="M635.13,129.93V389.32h-63.19V129.93h63.19Z"/>
        <path class="cls-1" d="M748.19,337.59h111.59v51.73h-183.27v-48.03l110.85-159.63h-110.85v-51.73h183.27v48.03l-111.59,159.62Z"/>
        <path class="cls-1" d="M968.41,337.59h111.59v51.73h-183.27v-48.03l110.85-159.63h-110.85v-51.73h183.27v48.03l-111.59,159.62Z"/>
      </g>
    </g>
  </g>
</svg>