<?xml version="1.0" encoding="UTF-8"?>
<svg id="Layer_2" data-name="Layer 2" xmlns="http://www.w3.org/2000/svg" viewBox="0 0 451.4 90.34">
  <defs>
    <style>
      .cls-1 {
        fill: #f3b3ce;
      }

      .cls-2 {
        fill: #62c5c3;
      }
    </style>
  </defs>
  <g id="Layer_1-2" data-name="Layer 1">
    <g>
      <path class="cls-2" d="M441.18,21.6c-5.64,0-10.23-4.59-10.23-10.23s4.59-10.23,10.23-10.23,10.23,4.59,10.23,10.23-4.59,10.23-10.23,10.23Zm0-18.17c-4.38,0-7.94,3.56-7.94,7.94s3.56,7.94,7.94,7.94,7.94-3.56,7.94-7.94-3.56-7.94-7.94-7.94Z"/>
      <path class="cls-2" d="M443.75,16.19l-1.94-2.8h-2.14v2.8h-2.33V6.12h4.36c.89,0,1.67,.15,2.32,.45,.66,.3,1.16,.72,1.52,1.27,.35,.55,.53,1.19,.53,1.94s-.18,1.39-.54,1.93c-.36,.54-.87,.96-1.53,1.24l2.26,3.24h-2.5Zm-.59-7.72c-.36-.3-.9-.45-1.6-.45h-1.9v3.51h1.9c.7,0,1.23-.15,1.6-.46,.36-.31,.55-.74,.55-1.29s-.18-1-.55-1.3Z"/>
      <path class="cls-2" d="M0,5.05H19.51V89.38H0V5.05Z"/>
      <path class="cls-1" d="M433.24,74.92h15.88v14.45h-15.88v-14.45Z"/>
      <path class="cls-2" d="M50.89,86.07c-5.5-2.85-9.8-6.81-12.89-11.87-3.09-5.05-4.64-10.8-4.64-17.22s1.55-12.16,4.64-17.22,7.39-9.02,12.89-11.87c5.5-2.84,11.7-4.27,18.61-4.27s12.79,1.43,17.88,4.27c5.1,2.85,8.81,6.92,11.14,12.23l-14.57,7.83c-3.38-5.94-8.23-8.91-14.58-8.91-4.9,0-8.95,1.61-12.17,4.82-3.21,3.21-4.82,7.58-4.82,13.12s1.61,9.92,4.82,13.13c3.21,3.21,7.27,4.82,12.17,4.82,6.42,0,11.29-2.97,14.58-8.91l14.57,7.95c-2.33,5.14-6.04,9.15-11.14,12.04-5.1,2.89-11.06,4.34-17.88,4.34s-13.11-1.42-18.61-4.27Z"/>
      <path class="cls-2" d="M171.65,62.28h-49.03c.89,4.02,2.97,7.19,6.26,9.51,3.29,2.34,7.39,3.49,12.29,3.49,3.37,0,6.36-.5,8.97-1.5,2.6-1,5.04-2.59,7.29-4.76l10,10.84c-6.1,6.99-15.02,10.48-26.74,10.48-7.31,0-13.78-1.42-19.39-4.27-5.62-2.85-9.96-6.81-13.01-11.87-3.05-5.05-4.58-10.8-4.58-17.22s1.5-12.06,4.52-17.16c3.01-5.1,7.14-9.08,12.4-11.93,5.26-2.84,11.14-4.27,17.65-4.27s12.09,1.37,17.22,4.1c5.14,2.72,9.18,6.64,12.11,11.74s4.4,11.02,4.4,17.77c0,.25-.12,1.93-.36,5.06Zm-43.96-20.84c-2.89,2.41-4.66,5.7-5.3,9.88h31.92c-.65-4.1-2.41-7.36-5.3-9.82-2.89-2.45-6.42-3.67-10.6-3.67s-7.83,1.2-10.72,3.61Z"/>
      <g>
        <path class="cls-1" d="M257.68,27.76c4.94,2.77,8.81,6.67,11.62,11.68,2.81,5.02,4.22,10.86,4.22,17.53s-1.41,12.51-4.22,17.53-6.68,8.91-11.62,11.68c-4.94,2.77-10.42,4.15-16.44,4.15-8.91,0-15.7-2.81-20.36-8.43v7.47h-17.95V0h18.79V31.44c4.74-5.22,11.24-7.83,19.51-7.83,6.03,0,11.51,1.38,16.44,4.15Zm-7.83,42.28c3.09-3.26,4.64-7.6,4.64-13.07s-1.55-9.81-4.64-13.07c-3.09-3.26-7.04-4.88-11.86-4.88s-8.77,1.62-11.86,4.88c-3.1,3.26-4.64,7.61-4.64,13.07s1.55,9.81,4.64,13.07c3.09,3.26,7.04,4.88,11.86,4.88s8.77-1.62,11.86-4.88Z"/>
        <path class="cls-1" d="M334.23,30.78c5.37,4.78,8.07,11.98,8.07,21.62v36.98h-17.59v-8.07c-3.53,6.03-10.12,9.03-19.75,9.03-4.98,0-9.3-.84-12.95-2.53-3.65-1.69-6.44-4.01-8.37-6.98-1.93-2.97-2.89-6.35-2.89-10.13,0-6.02,2.27-10.76,6.81-14.21,4.54-3.46,11.54-5.18,21.02-5.18h14.94c0-4.1-1.25-7.25-3.74-9.46-2.49-2.21-6.22-3.31-11.2-3.31-3.46,0-6.85,.54-10.18,1.62-3.33,1.08-6.16,2.55-8.49,4.39l-6.75-13.12c3.54-2.49,7.77-4.42,12.71-5.79,4.94-1.36,10.02-2.05,15.24-2.05,10.04,0,17.75,2.39,23.13,7.17Zm-16.02,44.68c2.49-1.49,4.26-3.68,5.3-6.57v-6.62h-12.89c-7.71,0-11.57,2.53-11.57,7.58,0,2.41,.94,4.32,2.83,5.72,1.88,1.4,4.48,2.11,7.77,2.11s6.06-.74,8.55-2.23Z"/>
        <path class="cls-1" d="M423.12,62.28h-49.03c.89,4.02,2.97,7.19,6.26,9.51,3.29,2.34,7.39,3.49,12.29,3.49,3.37,0,6.36-.5,8.97-1.5,2.6-1,5.04-2.59,7.29-4.76l10,10.84c-6.1,6.99-15.02,10.48-26.74,10.48-7.31,0-13.78-1.42-19.39-4.27-5.62-2.85-9.96-6.81-13.01-11.87-3.05-5.05-4.58-10.8-4.58-17.22s1.5-12.06,4.52-17.16c3.01-5.1,7.14-9.08,12.4-11.93,5.26-2.84,11.14-4.27,17.65-4.27s12.09,1.37,17.22,4.1c5.14,2.72,9.18,6.64,12.11,11.74,2.93,5.1,4.4,11.02,4.4,17.77,0,.25-.12,1.93-.36,5.06Zm-43.96-20.84c-2.89,2.41-4.66,5.7-5.3,9.88h31.92c-.65-4.1-2.41-7.36-5.3-9.82-2.89-2.45-6.42-3.67-10.6-3.67s-7.83,1.2-10.72,3.61Z"/>
      </g>
    </g>
  </g>
</svg>