<?xml version="1.0" encoding="UTF-8"?>
<svg id="Layer_2" data-name="Layer 2" xmlns="http://www.w3.org/2000/svg" viewBox="0 0 285.9 83.35">
  <defs>
    <style>
      .cls-1 {
        fill-rule: evenodd;
      }

      .cls-1, .cls-2 {
        fill: #035b98;
      }

      .cls-3 {
        fill: none;
      }
    </style>
  </defs>
  <g id="Layer_1-2" data-name="Layer 1">
    <polygon class="cls-2" points="95.35 74.17 95.35 11.03 112.84 11.03 112.84 74.17 95.35 74.17 95.35 74.17"/>
    <polygon class="cls-2" points="122.02 74.17 122.02 11.03 170.12 11.03 170.12 23.27 139.51 23.27 139.51 36.3 167.67 36.3 167.67 48.55 139.51 48.55 139.51 61.93 170.12 61.93 170.12 74.17 122.02 74.17 122.02 74.17"/>
    <polygon class="cls-2" points="179.92 74.17 179.92 11.03 228.01 11.03 228.01 23.27 197.41 23.27 197.41 36.3 225.56 36.3 225.56 48.55 197.41 48.55 197.41 61.93 228.01 61.93 228.01 74.17 179.92 74.17 179.92 74.17"/>
    <polygon class="cls-2" points="237.8 74.17 237.8 11.03 285.9 11.03 285.9 23.27 255.3 23.27 255.3 36.3 283.46 36.3 283.46 48.55 255.3 48.55 255.3 61.93 285.9 61.93 285.9 74.17 237.8 74.17 237.8 74.17"/>
    <rect class="cls-3" y="0" width="285.9" height="83.35"/>
    <path class="cls-2" d="M39.25,11.74c2.79-2.17,6.3-.37,8.64,1.63,2.46,1.88,5.02,4.01,7.26,6.18l.41,.23c6.22,5.77,12,12.18,16.74,18.97,.77,1.18,1.45,2.52,1.02,4.08-1.58,3.96-4.8,7.11-7.61,10.56-6.08,6.55-12.5,12.88-19.68,17.94-1.45,1.03-3.41,1.98-5.15,1.16-5.29-2.77-9.75-7.3-14.37-11.43-5.37-4.98-10.76-10.77-14.82-16.83-.6-.85-.77-1.9-.76-3.02,.52-2.09,1.96-3.82,3.31-5.58,4.81-6.13,10.7-11.94,16.64-17.24,.14-.14,.39-.43,.61-.56,2.55-2.21,5.09-4.16,7.77-6.08h0Zm8.17-6.37l-3.16-4.47c-.39-.24-.87-.63-1.3-.74-.93-.4-1.94,.08-2.7,.66l-5.71,7.44C25.39,19.6,14.54,30.2,2.71,38.32c-.94,.73-2.33,1.44-2.62,2.65-.31,1.08,.25,1.98,.93,2.65,9.48,6.53,18.54,14.28,26.61,23.12,1.43,1.5,2.59,3,3.99,4.41,2.36,3.14,5.13,6.3,7.3,9.67,.68,.71,.8,1.88,1.86,2.23,.83,.29,1.86,.48,2.65,0l.79-.79c9.81-13.89,22.25-26.37,36.14-36.44,1.39-1.24,4.05-1.71,4.09-4.01-.1-1.06-.72-2.11-1.63-2.69l-.23-.04c-7.15-4.86-13.81-10.37-20.09-16.61l-6.94-7.25c-2.81-3.12-5.54-6.57-8.14-9.86h0Zm-7.15,8.08c2.85-1.94,5.41,.77,7.62,2.32,8.54,6.88,16.6,14.74,22.74,23.63,.78,1.15,1.12,2.93,.43,4.23-1.59,2.66-3.74,5.08-5.78,7.54v.13c-5.08,5.41-10.44,10.96-16.24,15.54-2.83,1.72-5.42,5.48-9.07,3.15-8.29-6.06-16.23-13.6-22.96-21.68-1.14-1.78-2.92-3.23-3.72-5.25-1.11-2.73,1.33-4.69,2.73-6.74,6.86-8.46,15.38-16.76,24.23-22.88h0Zm1.8,5.58l-.77,2.48-3.88,11.1c.97,.1,2.17,0,3.13,.1v.09l-.57,12.56,.1,.13c1.24,.12,2.79,.18,4.05-.03v-.2l-.51-12.18,.08-.41,3.41-.06c-1.7-4.49-3.35-9.03-4.94-13.58h-.1Zm-13.19,17.39c-2.17,1.09-5.37,2.74-5.02,5.72,.47,1.63,2.23,2.68,3.62,3.35,7.71,3.4,17.94,3.51,26.08,.98,2.01-.77,4.71-1.9,5.08-4.36-.02-2.03-2.17-3.31-3.72-4.09v-.1c.54-.21,1.16-.4,1.72-.46v-.05c-2.73-.49-5.36-1.2-8-1.9,.51,1.16,.88,2.38,1.3,3.58,.79-.25,1.61-.45,2.46-.56,1.39,.54,3.39,1.32,3.58,3.06,.15,1.63-1.63,2.42-2.75,3.08-5.97,2.17-12.69,2.38-18.91,.73-1.72-.54-4.2-1.24-4.42-3.43,1.22-2.88,4.38-3.48,7.01-4.18-1.35-.87-2.73-1.65-4.05-2.62-1.42,.08-2.71,.7-3.99,1.26h0Zm11.02,12.52c-.23,4.46-.29,8.59-.62,13.06,1.76,.16,3.76,.31,5.64,.04l-.56-12.46-.1-.59c-1.43,.06-2.79,.11-4.36-.04h0Z"/>
    <path class="cls-1" d="M56.36,74.44c-1.56,0-2.95,1.08-2.95,2.93s1.39,2.94,2.95,2.94,2.94-1.08,2.94-2.94-1.39-2.93-2.94-2.93Zm0,5.19h0c-1.16,0-2.1-.9-2.1-2.26s.94-2.25,2.1-2.25,2.1,.9,2.1,2.25-.97,2.26-2.1,2.26Zm1.31-2.89c0-.72-.48-.95-1.3-.95h-1.18v3.16h.68v-1.33h.32l.73,1.33h.81l-.82-1.39c.43-.03,.76-.24,.76-.82Zm-1.2,.34h-.6v-.76h.48c.26,0,.61,.03,.61,.35,0,.35-.18,.41-.48,.41Z"/>
  </g>
</svg>