<?xml version="1.0" encoding="UTF-8"?>
<svg id="Layer_2" data-name="Layer 2" xmlns="http://www.w3.org/2000/svg" viewBox="0 0 1618.43 272.61">
  <defs>
    <style>
      .cls-1 {
        fill: #066;
      }
    </style>
  </defs>
  <g id="Layer_1-2" data-name="Layer 1">
    <g>
      <path class="cls-1" d="M261.43,195.93c-27.71,6.4-56.54-4.64-72.88-27.92-16.34-23.28-16.94-54.14-1.52-78.03,15.43-23.89,43.8-36.04,71.74-30.73,27.94,5.32,49.86,27.04,55.43,54.93,7.99,37.15-15.64,73.74-52.78,81.74Zm-.62-2.19c18.81-4.31,27.47-36.4,19.34-71.65-8.13-35.24-29.99-60.29-48.8-55.94-18.81,4.34-27.48,36.44-19.34,71.67,8.14,35.23,29.98,60.28,48.8,55.94v-.03Z"/>
      <path class="cls-1" d="M418.6,195.93c-27.71,6.4-56.54-4.64-72.88-27.92-16.34-23.28-16.94-54.14-1.52-78.03,15.43-23.89,43.8-36.04,71.74-30.73,27.94,5.32,49.86,27.04,55.43,54.93,7.99,37.15-15.64,73.74-52.78,81.74Zm-.62-2.19c18.81-4.31,27.47-36.4,19.34-71.65-8.13-35.24-29.99-60.29-48.8-55.94-18.81,4.34-27.48,36.44-19.34,71.67,8.14,35.23,29.98,60.28,48.8,55.94v-.03Z"/>
      <path class="cls-1" d="M645.84,197.79h-27.38c-15.36,0-27.79-9.39-27.94-21.01V104.77c0-42.67-61.39-15.08-61.39,20.4v51.39c0,11.72,4.94,21.22,20.39,21.22h-27.38c-15.36,0-27.79-9.39-27.94-21.01V21.22c0-11.73-4.95-21.22-20.4-21.22h27.38c15.45,0,27.97,9.5,27.97,21.22V122.9c0-61.92,96.37-90.24,96.37-18.12v71.78c0,11.73,4.94,21.22,20.33,21.24Z"/>
      <path class="cls-1" d="M711.78,197.79h-27.38c-15.35,0-27.79-9.39-27.94-21.01V83.32c0-11.72-4.95-21.22-20.4-21.22h27.38c15.45,0,27.97,9.5,27.97,21.22v93.23c0,11.73,4.94,21.22,20.37,21.24Zm-55.2-174.05c10.27-1.89,17.65-10.97,17.38-21.41-.26,10.44,7.11,19.53,17.39,21.41-10.28,1.89-17.65,10.97-17.38,21.42,.27-10.45-7.11-19.54-17.39-21.42Z"/>
      <path class="cls-1" d="M877.75,197.76h-27.39c-15.45,0-27.97-9.5-27.97-21.22V21.3c0-11.72-4.94-21.22-20.4-21.22h27.38c15.45,0,27.97,9.51,27.97,21.22V176.54c0,11.7,4.94,21.22,20.4,21.22Zm32.14-117.94h-.04c-10.34,.87-17.1,13.33-17.38,24.84-.29-11.52-7.04-23.97-17.38-24.84,10.34-.86,17.1-13.32,17.38-24.84,.29,11.52,7.05,23.97,17.42,24.84Zm72.79,117.94h-27.38c-15.45,0-27.98-9.5-27.98-21.22V21.3c0-11.72-4.94-21.22-20.39-21.22h27.38c15.45,0,27.96,9.51,27.96,21.22V176.54c0,11.7,4.95,21.22,20.4,21.22Z"/>
      <path class="cls-1" d="M1097.84,149.57l23.49,13.16c-9.83,16.85-26.21,28.87-45.23,33.2-35.72,8.4-71.83-12.4-82.48-47.52s7.8-72.47,42.16-85.34c34.37-12.87,72.82,3.17,87.86,36.64l.64,1.14-93.02,52.05c10.11,26.96,28.23,44.51,44.22,40.83,13.7-3.17,21.97-21.07,22.36-44.17Zm-67.4,1.17l62.67-35.07c-9.19-31.8-29.45-53.63-47.09-49.56-18.82,4.34-27.47,36.43-19.34,71.68,1.01,4.38,2.27,8.71,3.76,12.95Z"/>
      <path class="cls-1" d="M1298.87,197.79h-27.38c-15.35,0-27.79-9.39-27.95-21.01V104.77c0-42.67-61.39-15.08-61.39,20.4v51.39c0,11.72,4.95,21.22,20.4,21.22h-27.38c-15.35,0-27.79-9.39-27.95-21.01V83.32c0-11.72-4.94-21.22-20.4-21.22h27.39c15.45,0,27.97,9.5,27.97,21.22v39.57c0-61.92,96.37-90.24,96.37-18.12v71.78c0,11.73,4.94,21.22,20.32,21.24Z"/>
      <path class="cls-1" d="M1469.07,197.79h-27.38c-15.35,0-27.79-9.39-27.95-21.01V104.77c0-42.67-61.39-15.08-61.39,20.4v51.39c0,11.72,4.95,21.22,20.4,21.22h-27.38c-15.35,0-27.79-9.39-27.95-21.01V83.32c0-11.72-4.94-21.22-20.4-21.22h27.39c15.45,0,27.97,9.5,27.97,21.22v39.57c0-61.92,96.37-90.24,96.37-18.12v71.78c0,11.73,4.94,21.22,20.32,21.24Z"/>
      <path class="cls-1" d="M1618.43,197.69h-27.38c-15.45,0-27.97-9.51-27.97-21.22v-1.95c-10.63-10.5-15.51,11.86-28.96,18.52-6.63,3-13.82,4.58-21.09,4.65-15.59,.21-29.5-9.77-34.3-24.6-20.08-48.1,49.41-92.7,84.36-48.68v-41.11c-.02-2.24-.27-4.47-.76-6.66-.16-.67-.28-1.38-.48-2-.06-.19-.14-.36-.2-.54-1.66-4.71-5.25-8.49-9.86-10.41-2.27-.78-4.65-1.23-7.05-1.33-4.66,0-9.11,1.95-12.27,5.37-3.16,3.43-4.74,8.02-4.36,12.67l-35.01,19.58c0-20.73,0-37.83,41.42-37.83h35.52c15.45,0,27.98,9.5,27.98,21.22v93.07c0,11.72,4.94,21.22,20.42,21.25Zm-55.37-72.52c-34.97-35.8-68.15,13.31-51.87,35.51,14.33,19.54,25.85,4.12,41.24,3.3,2.84-.42,5.72,.51,7.8,2.5,2.07,1.99,3.11,4.83,2.81,7.69l.02-49Z"/>
      <g>
        <path class="cls-1" d="M80.12,135.48h-24.76v41.05c0,11.72-12.52,21.22-27.97,21.22H0c15.45,0,20.4-9.51,20.4-21.22V21.29C20.4,9.57,15.45,.07,0,.07H27.38c15.45,0,27.97,9.51,27.97,21.22V114.27c-.1,41.25,63.11,11.19,63.11-51.27,0-36.22-21-60.73-63.01-42.95-.18,.07,0-.69,0-.69,37.44-40.81,104.78-12.29,104.78,43.79,.61,34.14-23.5,63.75-57.06,70.05"/>
        <path class="cls-1" d="M86.89,137.43c-4.01-1.48-7.34-1.86-9.14-1.95-.82-.04-1.62-.68-1.83-1.48h0c-.22-.84,.29-1.53,1.14-1.55,5.99-.15,17.64-.31,35.19,12.85,21.15,15.86,16.02,31.59,36.6,43.56,0,0-9.37-6.67-18.85-29.94-7.5-18.42-27.86-25.23-28.2-25.4,.25-.05,16.42-3.05,32.65,10.11,18.06,14.64,13.97,45.99,37.29,54.09,0,0-31.8,7.78-54.75-10.83-15.15-12.28-17.12-27.43-20.28-39.08-1.24-4.56-5.09-8.63-9.82-10.38Z"/>
      </g>
      <path class="cls-1" d="M67.51,68.26c10.27-1.89,17.65-10.97,17.38-21.41-.26,10.44,7.11,19.53,17.39,21.41-10.28,1.89-17.65,10.97-17.38,21.42,.27-10.45-7.11-19.54-17.39-21.42Z"/>
      <g>
        <path class="cls-1" d="M19.05,271.95l-10.26-38.65h5.25l5.88,25.34c.63,2.65,1.18,5.29,1.63,7.91,.98-4.13,1.56-6.51,1.74-7.15l7.36-26.1h6.17l5.54,19.56c1.39,4.85,2.39,9.41,3.01,13.68,.49-2.44,1.13-5.25,1.92-8.41l6.06-24.84h5.14l-10.6,38.65h-4.93l-8.15-29.45c-.69-2.46-1.09-3.97-1.21-4.54-.4,1.78-.78,3.29-1.13,4.54l-8.2,29.45h-5.22Z"/>
        <path class="cls-1" d="M83.1,271.95v-38.65h27.95v4.56h-22.83v11.84h21.38v4.54h-21.38v13.16h23.73v4.56h-28.85Z"/>
        <path class="cls-1" d="M134.48,271.95l14.84-38.65h5.51l15.82,38.65h-5.83l-4.51-11.71h-16.16l-4.25,11.71h-5.43Zm11.15-15.87h13.1l-4.03-10.71c-1.23-3.25-2.15-5.92-2.74-8.02-.49,2.48-1.19,4.94-2.08,7.38l-4.25,11.34Z"/>
        <path class="cls-1" d="M194.54,271.95v-38.65h17.14c3.44,0,6.06,.35,7.86,1.04,1.79,.7,3.23,1.92,4.3,3.68,1.07,1.76,1.61,3.7,1.61,5.83,0,2.74-.89,5.05-2.66,6.93-1.78,1.88-4.52,3.08-8.23,3.59,1.35,.65,2.38,1.29,3.08,1.92,1.49,1.37,2.91,3.08,4.25,5.14l6.72,10.52h-6.43l-5.12-8.04c-1.49-2.32-2.73-4.1-3.69-5.33-.97-1.23-1.83-2.09-2.6-2.58s-1.54-.83-2.33-1.03c-.58-.12-1.53-.18-2.85-.18h-5.93v17.17h-5.12Zm5.12-21.59h11c2.34,0,4.17-.24,5.48-.73,1.32-.48,2.32-1.26,3.01-2.32,.69-1.06,1.03-2.22,1.03-3.47,0-1.83-.66-3.33-1.99-4.51-1.33-1.18-3.42-1.77-6.29-1.77h-12.23v12.79Z"/>
        <path class="cls-1" d="M296.89,271.95v-16.37l-14.9-22.28h6.22l7.62,11.65c1.41,2.18,2.72,4.36,3.93,6.54,1.16-2.02,2.57-4.3,4.22-6.83l7.49-11.36h5.96l-15.42,22.28v16.37h-5.12Z"/>
        <path class="cls-1" d="M340.18,253.13c0-6.42,1.72-11.44,5.17-15.07,3.44-3.63,7.89-5.45,13.34-5.45,3.57,0,6.79,.85,9.65,2.56,2.86,1.71,5.05,4.08,6.55,7.13,1.5,3.05,2.25,6.51,2.25,10.38s-.79,7.43-2.37,10.52-3.82,5.44-6.72,7.03-6.03,2.39-9.39,2.39c-3.64,0-6.89-.88-9.76-2.64-2.87-1.76-5.04-4.16-6.51-7.2s-2.21-6.26-2.21-9.65Zm5.27,.08c0,4.66,1.25,8.33,3.76,11.01s5.65,4.02,9.43,4.02,7.02-1.35,9.51-4.06c2.49-2.71,3.73-6.55,3.73-11.52,0-3.15-.53-5.89-1.6-8.24-1.06-2.35-2.62-4.17-4.67-5.46-2.05-1.29-4.35-1.94-6.9-1.94-3.62,0-6.74,1.24-9.35,3.73s-3.92,6.64-3.92,12.46Z"/>
        <path class="cls-1" d="M428.82,233.3h5.12v22.33c0,3.88-.44,6.97-1.32,9.25-.88,2.29-2.47,4.14-4.76,5.58-2.29,1.43-5.3,2.15-9.03,2.15s-6.58-.62-8.89-1.87c-2.3-1.25-3.95-3.05-4.93-5.42-.98-2.36-1.48-5.59-1.48-9.69v-22.33h5.12v22.31c0,3.36,.31,5.83,.94,7.42,.62,1.59,1.7,2.82,3.22,3.68,1.52,.86,3.38,1.29,5.58,1.29,3.76,0,6.44-.85,8.04-2.56,1.6-1.71,2.4-4.98,2.4-9.83v-22.31Z"/>
        <path class="cls-1" d="M462.25,271.95v-38.65h17.14c3.44,0,6.06,.35,7.86,1.04,1.79,.7,3.23,1.92,4.3,3.68,1.07,1.76,1.61,3.7,1.61,5.83,0,2.74-.89,5.05-2.66,6.93-1.78,1.88-4.52,3.08-8.23,3.59,1.35,.65,2.38,1.29,3.08,1.92,1.49,1.37,2.91,3.08,4.25,5.14l6.72,10.52h-6.43l-5.12-8.04c-1.49-2.32-2.73-4.1-3.69-5.33-.97-1.23-1.83-2.09-2.6-2.58s-1.54-.83-2.33-1.03c-.58-.12-1.53-.18-2.85-.18h-5.93v17.17h-5.12Zm5.12-21.59h11c2.34,0,4.17-.24,5.48-.73,1.32-.48,2.32-1.26,3.01-2.32,.69-1.06,1.03-2.22,1.03-3.47,0-1.83-.66-3.33-1.99-4.51-1.33-1.18-3.42-1.77-6.29-1.77h-12.23v12.79Z"/>
        <path class="cls-1" d="M551.97,259.54l4.83-.42c.23,1.93,.76,3.52,1.6,4.76,.83,1.24,2.13,2.24,3.89,3.01,1.76,.77,3.73,1.15,5.93,1.15,1.95,0,3.67-.29,5.17-.87,1.49-.58,2.61-1.38,3.34-2.39,.73-1.01,1.09-2.11,1.09-3.31s-.35-2.27-1.05-3.18c-.7-.9-1.86-1.67-3.48-2.28-1.04-.4-3.33-1.03-6.88-1.89-3.55-.85-6.04-1.66-7.46-2.41-1.85-.97-3.22-2.17-4.13-3.6-.91-1.43-1.36-3.04-1.36-4.81,0-1.95,.55-3.77,1.66-5.47,1.11-1.7,2.72-2.98,4.85-3.86,2.13-.88,4.49-1.32,7.09-1.32,2.86,0,5.39,.46,7.58,1.38,2.19,.92,3.87,2.28,5.05,4.07,1.18,1.79,1.81,3.82,1.9,6.09l-4.9,.37c-.26-2.44-1.16-4.29-2.68-5.54-1.52-1.25-3.77-1.87-6.74-1.87s-5.35,.57-6.76,1.7c-1.42,1.13-2.12,2.5-2.12,4.1,0,1.39,.5,2.53,1.5,3.43,.98,.9,3.56,1.82,7.71,2.76,4.16,.94,7.01,1.76,8.56,2.46,2.25,1.04,3.91,2.35,4.98,3.94,1.07,1.59,1.61,3.42,1.61,5.5s-.59,3.99-1.77,5.81c-1.18,1.82-2.87,3.23-5.08,4.24-2.21,1.01-4.69,1.52-7.45,1.52-3.5,0-6.43-.51-8.79-1.53-2.36-1.02-4.22-2.55-5.56-4.6s-2.05-4.36-2.12-6.95Z"/>
        <path class="cls-1" d="M619.28,271.95v-34.09h-12.74v-4.56h30.64v4.56h-12.79v34.09h-5.12Z"/>
        <path class="cls-1" d="M659.62,253.13c0-6.42,1.72-11.44,5.17-15.07,3.44-3.63,7.89-5.45,13.34-5.45,3.57,0,6.79,.85,9.65,2.56,2.86,1.71,5.05,4.08,6.55,7.13,1.5,3.05,2.25,6.51,2.25,10.38s-.79,7.43-2.37,10.52-3.82,5.44-6.72,7.03-6.03,2.39-9.39,2.39c-3.64,0-6.89-.88-9.76-2.64-2.87-1.76-5.04-4.16-6.51-7.2s-2.21-6.26-2.21-9.65Zm5.27,.08c0,4.66,1.25,8.33,3.76,11.01s5.65,4.02,9.43,4.02,7.02-1.35,9.51-4.06c2.49-2.71,3.73-6.55,3.73-11.52,0-3.15-.53-5.89-1.6-8.24-1.06-2.35-2.62-4.17-4.67-5.46-2.05-1.29-4.35-1.94-6.9-1.94-3.62,0-6.74,1.24-9.35,3.73s-3.92,6.64-3.92,12.46Z"/>
        <path class="cls-1" d="M722.98,271.95v-38.65h17.14c3.44,0,6.06,.35,7.86,1.04,1.79,.7,3.23,1.92,4.3,3.68,1.07,1.76,1.61,3.7,1.61,5.83,0,2.74-.89,5.05-2.66,6.93-1.78,1.88-4.52,3.08-8.23,3.59,1.35,.65,2.38,1.29,3.08,1.92,1.49,1.37,2.91,3.08,4.25,5.14l6.72,10.52h-6.43l-5.12-8.04c-1.49-2.32-2.73-4.1-3.69-5.33-.97-1.23-1.83-2.09-2.6-2.58s-1.54-.83-2.33-1.03c-.58-.12-1.53-.18-2.85-.18h-5.93v17.17h-5.12Zm5.12-21.59h11c2.34,0,4.17-.24,5.48-.73,1.32-.48,2.32-1.26,3.01-2.32,.69-1.06,1.03-2.22,1.03-3.47,0-1.83-.66-3.33-1.99-4.51-1.33-1.18-3.42-1.77-6.29-1.77h-12.23v12.79Z"/>
        <path class="cls-1" d="M791.53,271.95v-16.37l-14.9-22.28h6.22l7.62,11.65c1.41,2.18,2.72,4.36,3.93,6.54,1.16-2.02,2.57-4.3,4.22-6.83l7.49-11.36h5.96l-15.42,22.28v16.37h-5.12Z"/>
        <path class="cls-1" d="M869.09,271.95v-38.65h5.12v38.65h-5.12Z"/>
        <path class="cls-1" d="M902.89,271.95v-38.65h5.25l20.3,30.35v-30.35h4.9v38.65h-5.25l-20.3-30.38v30.38h-4.9Z"/>
        <path class="cls-1" d="M994.43,271.95v-38.65h5.25l20.3,30.35v-30.35h4.9v38.65h-5.25l-20.3-30.38v30.38h-4.9Z"/>
        <path class="cls-1" d="M1048.95,271.95l14.84-38.65h5.51l15.82,38.65h-5.83l-4.51-11.71h-16.16l-4.25,11.71h-5.43Zm11.15-15.87h13.1l-4.03-10.71c-1.23-3.25-2.14-5.92-2.74-8.02-.49,2.48-1.19,4.94-2.08,7.38l-4.25,11.34Z"/>
        <path class="cls-1" d="M1114.76,271.95v-34.09h-12.74v-4.56h30.64v4.56h-12.79v34.09h-5.12Z"/>
        <path class="cls-1" d="M1182.99,233.3h5.12v22.33c0,3.88-.44,6.97-1.32,9.25s-2.46,4.14-4.76,5.58c-2.29,1.43-5.3,2.15-9.03,2.15s-6.58-.62-8.89-1.87-3.95-3.05-4.93-5.42-1.48-5.59-1.48-9.69v-22.33h5.12v22.31c0,3.36,.31,5.83,.94,7.42,.62,1.59,1.7,2.82,3.22,3.68,1.52,.86,3.38,1.29,5.58,1.29,3.76,0,6.44-.85,8.04-2.56s2.4-4.98,2.4-9.83v-22.31Z"/>
        <path class="cls-1" d="M1216.42,271.95v-38.65h17.14c3.45,0,6.06,.35,7.86,1.04,1.79,.7,3.23,1.92,4.3,3.68s1.61,3.7,1.61,5.83c0,2.74-.89,5.05-2.66,6.93s-4.52,3.08-8.23,3.59c1.35,.65,2.38,1.29,3.08,1.92,1.49,1.37,2.91,3.08,4.25,5.14l6.72,10.52h-6.43l-5.12-8.04c-1.49-2.32-2.72-4.1-3.69-5.33s-1.83-2.09-2.6-2.58c-.77-.49-1.54-.83-2.33-1.03-.58-.12-1.53-.18-2.85-.18h-5.93v17.17h-5.12Zm5.12-21.59h11c2.34,0,4.17-.24,5.48-.73,1.32-.48,2.32-1.26,3.01-2.32,.69-1.06,1.03-2.22,1.03-3.47,0-1.83-.66-3.33-1.99-4.51s-3.42-1.77-6.29-1.77h-12.23v12.79Z"/>
        <path class="cls-1" d="M1270.81,271.95l14.84-38.65h5.51l15.82,38.65h-5.83l-4.51-11.71h-16.16l-4.25,11.71h-5.43Zm11.15-15.87h13.1l-4.03-10.71c-1.23-3.25-2.14-5.92-2.74-8.02-.49,2.48-1.19,4.94-2.08,7.38l-4.25,11.34Z"/>
        <path class="cls-1" d="M1330.58,271.95v-38.65h5.12v34.09h19.04v4.56h-24.15Z"/>
        <path class="cls-1" d="M1411.52,271.95v-38.65h5.12v15.87h20.09v-15.87h5.12v38.65h-5.12v-18.22h-20.09v18.22h-5.12Z"/>
        <path class="cls-1" d="M1495.45,233.3h5.12v22.33c0,3.88-.44,6.97-1.32,9.25s-2.46,4.14-4.76,5.58c-2.29,1.43-5.3,2.15-9.03,2.15s-6.58-.62-8.89-1.87-3.95-3.05-4.93-5.42-1.48-5.59-1.48-9.69v-22.33h5.12v22.31c0,3.36,.31,5.83,.94,7.42,.62,1.59,1.7,2.82,3.22,3.68,1.52,.86,3.38,1.29,5.58,1.29,3.76,0,6.44-.85,8.04-2.56s2.4-4.98,2.4-9.83v-22.31Z"/>
        <path class="cls-1" d="M1528.9,271.95v-38.65h27.95v4.56h-22.83v11.84h21.38v4.54h-21.38v13.16h23.73v4.56h-28.85Z"/>
        <path class="cls-1" d="M1582.79,259.54l4.83-.42c.23,1.93,.76,3.52,1.59,4.76,.83,1.24,2.13,2.24,3.89,3.01,1.76,.77,3.74,1.15,5.93,1.15,1.95,0,3.67-.29,5.17-.87s2.61-1.38,3.34-2.39c.73-1.01,1.09-2.11,1.09-3.31s-.35-2.27-1.05-3.18c-.7-.9-1.86-1.67-3.48-2.28-1.04-.4-3.33-1.03-6.88-1.89-3.55-.85-6.04-1.66-7.46-2.41-1.85-.97-3.22-2.17-4.13-3.6-.91-1.43-1.36-3.04-1.36-4.81,0-1.95,.55-3.77,1.66-5.47,1.11-1.7,2.72-2.98,4.85-3.86s4.49-1.32,7.09-1.32c2.87,0,5.39,.46,7.58,1.38,2.19,.92,3.87,2.28,5.05,4.07s1.81,3.82,1.9,6.09l-4.9,.37c-.26-2.44-1.16-4.29-2.68-5.54s-3.77-1.87-6.74-1.87-5.35,.57-6.76,1.7c-1.42,1.13-2.12,2.5-2.12,4.1,0,1.39,.5,2.53,1.5,3.43,.98,.9,3.55,1.82,7.71,2.76,4.16,.94,7.01,1.76,8.56,2.46,2.25,1.04,3.91,2.35,4.98,3.94,1.07,1.59,1.61,3.42,1.61,5.5s-.59,3.99-1.77,5.81c-1.18,1.82-2.87,3.23-5.08,4.24-2.21,1.01-4.69,1.52-7.45,1.52-3.5,0-6.43-.51-8.79-1.53s-4.22-2.55-5.56-4.6c-1.35-2.05-2.05-4.36-2.12-6.95Z"/>
      </g>
    </g>
  </g>
</svg>